<svg width="933" height="715" viewBox="0 0 933 715" fill="none" xmlns="http://www.w3.org/2000/svg">
<path fill-rule="evenodd" clip-rule="evenodd" d="M645.036 200.088C660.151 180.567 684.265 169.519 703.437 165.802C712.328 164.077 720.933 169.887 722.658 178.778C724.382 187.669 718.572 196.275 709.681 197.999C695.931 200.665 679.898 208.634 670.969 220.167C666.724 225.649 664.185 231.763 663.844 238.7C663.501 245.688 665.329 254.793 671.953 266.268C678.409 277.45 685.099 282.63 690.872 285.018C696.731 287.442 703.436 287.725 711.114 285.956C727.2 282.25 743.947 270.356 755.451 260.11C762.215 254.087 772.58 254.686 778.604 261.45C784.627 268.213 784.027 278.578 777.264 284.602C764.592 295.888 742.778 312.317 718.477 317.916C705.961 320.8 692.015 320.982 678.337 315.325C664.572 309.632 652.837 298.751 643.55 282.666C634.432 266.873 630.375 251.573 631.087 237.09C631.801 222.555 637.259 210.133 645.036 200.088ZM469.562 300.979C473.945 295.699 481.153 293.707 487.626 295.986L588.416 331.478L553.187 270.458C548.658 262.614 551.346 252.585 559.189 248.057C567.032 243.529 577.061 246.216 581.589 254.059L638.984 353.469C642.415 359.412 641.783 366.863 637.4 372.143C633.016 377.423 625.809 379.415 619.336 377.136L518.545 341.645L553.775 402.665C558.303 410.508 555.616 420.537 547.773 425.066C539.93 429.594 529.901 426.907 525.372 419.063L467.978 319.653C464.546 313.71 465.179 306.259 469.562 300.979ZM402.973 338.248C410.816 333.72 420.845 336.407 425.373 344.251L482.768 443.661C487.296 451.504 484.609 461.533 476.766 466.062C468.922 470.59 458.893 467.903 454.365 460.059L396.97 360.649C392.442 352.806 395.129 342.777 402.973 338.248ZM766.981 186.48C758.417 144.633 785.591 117.344 800.614 108.67C808.457 104.142 818.486 106.829 823.014 114.672C827.543 122.516 824.855 132.545 817.012 137.073C809.313 141.518 794.368 156.724 799.112 179.905C800.928 188.778 795.207 197.443 786.334 199.258C777.461 201.074 768.797 195.353 766.981 186.48ZM287.553 419.774C291.303 411.53 301.026 407.888 309.27 411.638L360.631 435.004C367.66 438.202 371.506 445.87 369.864 453.416L359.499 501.058C357.574 509.908 348.839 515.521 339.99 513.596C331.14 511.67 325.527 502.935 327.452 494.086L335.003 459.376L295.689 441.491C287.445 437.741 283.803 428.018 287.553 419.774Z" fill="#153989"/>
<path d="M486.972 511.588L496.152 555.391L486.419 561.01L477.277 507.056L483.47 503.48L486.972 511.588ZM518.272 542.619L484.897 512.786L479.535 505.752L485.789 502.141L528.035 536.982L518.272 542.619ZM508.175 526.4L512.315 533.57L488.852 547.116L484.712 539.946L508.175 526.4Z" fill="#153989"/>
<path d="M554.472 502.07L563.595 496.803C565.138 499.899 565.847 503.029 565.721 506.193C565.616 509.346 564.637 512.325 562.785 515.13C560.953 517.923 558.217 520.371 554.576 522.473C551.728 524.117 548.894 525.103 546.072 525.43C543.239 525.737 540.484 525.429 537.809 524.505C535.154 523.57 532.652 522.032 530.303 519.889C527.954 517.747 525.84 515.048 523.961 511.794L522.182 508.712C520.303 505.458 519.033 502.272 518.372 499.155C517.72 496.005 517.663 493.041 518.202 490.263C518.76 487.472 519.881 484.927 521.563 482.626C523.245 480.326 525.48 478.372 528.267 476.763C531.969 474.625 535.478 473.494 538.796 473.369C542.134 473.231 545.186 473.937 547.952 475.486C550.738 477.024 553.142 479.216 555.165 482.062L546.012 487.346C544.877 485.615 543.646 484.305 542.319 483.417C540.981 482.508 539.509 482.096 537.905 482.182C536.308 482.236 534.493 482.85 532.459 484.024C530.934 484.905 529.766 485.959 528.955 487.186C528.145 488.413 527.688 489.83 527.585 491.436C527.481 493.041 527.747 494.841 528.382 496.833C529.026 498.794 530.029 500.954 531.391 503.314L533.206 506.456C534.533 508.755 535.874 510.679 537.23 512.228C538.574 513.758 539.948 514.917 541.353 515.706C542.766 516.463 544.219 516.818 545.71 516.77C547.21 516.691 548.774 516.181 550.401 515.242C552.313 514.138 553.713 512.923 554.602 511.596C555.49 510.27 555.914 508.818 555.872 507.242C555.85 505.655 555.383 503.931 554.472 502.07Z" fill="#153989"/>
<path d="M580.538 457.568L589.718 501.37L579.985 506.99L570.843 453.036L577.037 449.46L580.538 457.568ZM611.838 488.599L578.463 458.766L573.101 451.732L579.355 448.121L621.602 482.962L611.838 488.599ZM601.741 472.379L605.881 479.549L582.418 493.096L578.278 485.925L601.741 472.379Z" fill="#153989"/>
<path d="M644.983 469.463L635.311 475.047L631.25 467.872L640.861 462.323C643.261 460.938 644.974 459.23 645.999 457.201C647.012 455.151 647.331 452.838 646.956 450.261C646.6 447.673 645.565 444.894 643.851 441.924L642.6 439.758C641.285 437.48 639.884 435.617 638.398 434.17C636.931 432.711 635.39 431.662 633.773 431.023C632.156 430.383 630.496 430.162 628.793 430.359C627.078 430.535 625.335 431.134 623.566 432.156L613.619 437.899L609.48 430.729L619.426 424.986C622.396 423.271 625.405 422.212 628.453 421.808C631.51 421.372 634.484 421.567 637.375 422.393C640.266 423.22 642.951 424.653 645.43 426.693C647.919 428.7 650.079 431.291 651.911 434.464L653.126 436.569C654.946 439.722 656.11 442.888 656.616 446.067C657.143 449.234 657.042 452.276 656.312 455.193C655.59 458.077 654.272 460.75 652.358 463.212C650.451 465.641 647.993 467.725 644.983 469.463ZM614.85 427.628L640.498 472.052L631.344 477.337L605.696 432.913L614.85 427.628Z" fill="#153989"/>
<path d="M703.296 426.276L707.418 433.416L683.772 447.068L679.65 439.928L703.296 426.276ZM661.114 400.918L686.762 445.342L677.609 450.626L651.961 406.202L661.114 400.918ZM689.134 408.864L693.151 415.821L672.586 427.693L668.57 420.737L689.134 408.864ZM681.739 389.01L685.879 396.18L662.263 409.814L658.124 402.644L681.739 389.01Z" fill="#153989"/>
<path d="M696.913 380.249L704.663 375.775L734.905 401.803L727.485 362.598L735.235 358.124L744.834 411.814L738.61 415.407L696.913 380.249ZM692.733 382.662L700.452 378.206L720.211 409.188L727.504 421.819L718.381 427.086L692.733 382.662ZM731.696 360.167L739.445 355.693L765.094 400.117L755.94 405.402L748.647 392.77L731.696 360.167Z" fill="#153989"/>
<path d="M758.341 344.783L779.313 359.687L776.892 334.073L786.869 328.313L788.566 365.004L797.903 381.175L788.627 386.53L779.291 370.359L748.334 350.561L758.341 344.783Z" fill="#153989"/>
<path fill-rule="evenodd" clip-rule="evenodd" d="M486.315 314.819C510.778 318.148 532.402 333.507 545.208 348.252C551.147 355.09 550.418 365.447 543.58 371.386C536.743 377.324 526.385 376.595 520.447 369.758C511.263 359.183 496.345 349.283 481.892 347.316C475.023 346.381 468.458 347.239 462.28 350.413C456.056 353.609 449.085 359.745 442.46 371.219C436.004 382.401 434.863 390.785 435.681 396.979C436.512 403.265 439.619 409.213 444.989 414.977C456.243 427.056 474.917 435.612 489.542 440.452C498.14 443.297 502.803 452.574 499.958 461.172C497.113 469.77 487.836 474.434 479.238 471.588C463.127 466.257 437.993 455.58 420.994 437.334C412.238 427.937 405.107 415.951 403.167 401.276C401.216 386.509 404.771 370.905 414.057 354.821C423.175 339.028 434.397 327.864 447.296 321.239C460.24 314.59 473.727 313.106 486.315 314.819ZM311.204 213.299C317.968 214.455 323.297 219.701 324.559 226.446L344.218 331.479L379.448 270.459C383.977 262.616 394.006 259.929 401.849 264.457C409.692 268.985 412.379 279.014 407.851 286.858L350.457 386.268C347.025 392.211 340.257 395.389 333.492 394.233C326.728 393.076 321.399 387.831 320.137 381.086L300.478 276.052L265.248 337.073C260.719 344.916 250.69 347.603 242.847 343.075C235.004 338.546 232.317 328.517 236.845 320.674L294.239 221.264C297.671 215.321 304.439 212.143 311.204 213.299ZM245.633 174.265C253.476 178.794 256.163 188.823 251.635 196.666L194.24 296.076C189.712 303.92 179.683 306.607 171.84 302.079C163.996 297.55 161.309 287.521 165.837 279.678L223.232 180.268C227.76 172.424 237.789 169.737 245.633 174.265ZM559.072 413.622C591.031 385.282 628.251 395.17 643.274 403.844C651.117 408.372 653.804 418.401 649.276 426.244C644.748 434.088 634.719 436.775 626.875 432.247C619.176 427.801 598.535 422.462 580.832 438.161C574.056 444.169 563.691 443.547 557.682 436.771C551.674 429.995 552.296 419.631 559.072 413.622ZM117.32 115.072C126.334 114.198 134.35 120.797 135.224 129.811L140.669 185.974C141.414 193.66 136.696 200.825 129.34 203.176L82.8989 218.021C74.2723 220.779 65.0437 216.021 62.2862 207.394C59.5287 198.768 64.2866 189.539 72.9132 186.781L106.748 175.966L102.58 132.976C101.706 123.962 108.305 115.946 117.32 115.072Z" fill="#153989"/>
<path d="M137.516 333.68L104.172 363.531L94.4389 357.911L136.594 323.017L142.787 326.593L137.516 333.68ZM126.292 376.302L135.441 332.482L138.851 324.321L145.106 327.932L136.056 381.939L126.292 376.302ZM135.291 359.448L131.151 366.618L107.688 353.072L111.828 345.902L135.291 359.448Z" fill="#153989"/>
<path d="M179.509 387.378L188.632 392.645C186.722 395.529 184.366 397.708 181.563 399.181C178.78 400.666 175.711 401.308 172.355 401.107C169.021 400.917 165.533 399.771 161.892 397.669C159.044 396.025 156.773 394.063 155.079 391.783C153.397 389.483 152.286 386.943 151.748 384.164C151.23 381.397 151.312 378.461 151.993 375.356C152.674 372.25 153.954 369.07 155.833 365.816L157.612 362.734C159.491 359.48 161.615 356.787 163.984 354.656C166.386 352.517 168.924 350.986 171.6 350.063C174.295 349.151 177.06 348.849 179.893 349.156C182.727 349.462 185.537 350.42 188.323 352.029C192.025 354.167 194.76 356.64 196.527 359.451C198.315 362.273 199.23 365.269 199.271 368.439C199.333 371.621 198.637 374.799 197.183 377.974L188.03 372.689C188.962 370.84 189.481 369.119 189.587 367.526C189.705 365.913 189.325 364.433 188.449 363.086C187.604 361.73 186.165 360.465 184.131 359.291C182.605 358.41 181.108 357.926 179.641 357.838C178.173 357.749 176.718 358.062 175.275 358.775C173.833 359.488 172.408 360.618 170.999 362.165C169.623 363.702 168.254 365.651 166.892 368.011L165.077 371.153C163.75 373.452 162.755 375.576 162.091 377.525C161.438 379.453 161.122 381.223 161.141 382.834C161.192 384.437 161.611 385.872 162.397 387.14C163.216 388.399 164.439 389.498 166.067 390.438C167.979 391.542 169.731 392.147 171.324 392.253C172.917 392.359 174.386 392 175.73 391.176C177.094 390.363 178.354 389.097 179.509 387.378Z" fill="#153989"/>
<path d="M231.082 387.7L197.738 417.551L188.005 411.932L230.16 377.038L236.353 380.614L231.082 387.7ZM219.859 430.322L229.008 386.502L232.418 378.341L238.672 381.953L229.622 435.959L219.859 430.322ZM228.857 413.468L224.717 420.638L201.254 407.092L205.394 399.922L228.857 413.468Z" fill="#153989"/>
<path d="M253.003 449.459L243.331 443.874L247.514 436.77L257.125 442.319C259.525 443.705 261.861 444.334 264.131 444.207C266.412 444.06 268.575 443.18 270.619 441.566C272.682 439.964 274.572 437.679 276.286 434.709L277.537 432.543C278.852 430.264 279.765 428.12 280.275 426.109C280.805 424.11 280.943 422.251 280.689 420.531C280.434 418.811 279.796 417.262 278.774 415.886C277.763 414.489 276.373 413.279 274.603 412.257L264.657 406.515L268.796 399.345L278.743 405.087C281.713 406.802 284.135 408.878 286.009 411.316C287.915 413.746 289.233 416.419 289.963 419.335C290.693 422.252 290.794 425.294 290.267 428.461C289.772 431.62 288.609 434.786 286.777 437.959L285.562 440.064C283.741 443.217 281.581 445.807 279.081 447.835C276.602 449.875 273.917 451.308 271.026 452.135C268.167 452.952 265.193 453.147 262.104 452.72C259.047 452.284 256.014 451.197 253.003 449.459ZM274.166 402.445L248.518 446.869L239.365 441.584L265.013 397.16L274.166 402.445Z" fill="#153989"/>
<path d="M319.56 478.366L315.438 485.506L291.792 471.853L295.914 464.714L319.56 478.366ZM320.431 429.156L294.782 473.58L285.629 468.295L311.277 423.871L320.431 429.156ZM327.559 457.395L323.543 464.352L302.978 452.479L306.995 445.523L327.559 457.395ZM341.056 441.064L336.916 448.234L313.301 434.6L317.441 427.43L341.056 441.064Z" fill="#153989"/>
<path d="M356.23 449.824L363.98 454.299L356.56 493.503L386.802 467.475L394.552 471.95L352.855 507.108L346.63 503.514L356.23 449.824ZM352.05 447.411L359.769 451.868L342.817 484.471L335.524 497.102L326.402 491.835L352.05 447.411ZM391.012 469.906L398.762 474.381L373.114 518.804L363.961 513.52L371.253 500.888L391.012 469.906Z" fill="#153989"/>
<path d="M417.658 485.29L415.237 510.905L436.209 496L446.186 501.761L415.259 521.576L405.923 537.747L396.648 532.392L405.984 516.221L407.651 479.512L417.658 485.29Z" fill="#153989"/>
<path d="M466.05 110.679L743.81 563.92H188.29L466.05 110.679Z" fill="white"/>
<path d="M431.643 121.651H499.61L469.025 265.58H530.194L446.936 486.27L465.627 315.955H401.059L431.643 121.651Z" fill="#153989" stroke="#143888" stroke-width="16" stroke-linejoin="round"/>
<path d="M260.688 31.9414V15.8672H266.312V37H261.02L260.688 31.9414ZM261.312 27.6055L262.973 27.5664C262.973 28.9727 262.81 30.2812 262.484 31.4922C262.159 32.6901 261.671 33.7318 261.02 34.6172C260.368 35.4896 259.548 36.1732 258.559 36.668C257.569 37.1497 256.404 37.3906 255.062 37.3906C254.034 37.3906 253.083 37.2474 252.211 36.9609C251.352 36.6615 250.609 36.1992 249.984 35.5742C249.372 34.9362 248.891 34.1224 248.539 33.1328C248.201 32.1302 248.031 30.9258 248.031 29.5195V15.8672H253.656V29.5586C253.656 30.1836 253.728 30.7109 253.871 31.1406C254.027 31.5703 254.242 31.9219 254.516 32.1953C254.789 32.4688 255.108 32.6641 255.473 32.7812C255.85 32.8984 256.267 32.957 256.723 32.957C257.882 32.957 258.793 32.7227 259.457 32.2539C260.134 31.7852 260.609 31.1471 260.883 30.3398C261.169 29.5195 261.312 28.6081 261.312 27.6055ZM286.709 31.9414V15.8672H292.334V37H287.041L286.709 31.9414ZM287.334 27.6055L288.995 27.5664C288.995 28.9727 288.832 30.2812 288.506 31.4922C288.181 32.6901 287.692 33.7318 287.041 34.6172C286.39 35.4896 285.57 36.1732 284.58 36.668C283.591 37.1497 282.426 37.3906 281.084 37.3906C280.056 37.3906 279.105 37.2474 278.233 36.9609C277.373 36.6615 276.631 36.1992 276.006 35.5742C275.394 34.9362 274.913 34.1224 274.561 33.1328C274.222 32.1302 274.053 30.9258 274.053 29.5195V15.8672H279.678V29.5586C279.678 30.1836 279.75 30.7109 279.893 31.1406C280.049 31.5703 280.264 31.9219 280.538 32.1953C280.811 32.4688 281.13 32.6641 281.495 32.7812C281.872 32.8984 282.289 32.957 282.745 32.957C283.903 32.957 284.815 32.7227 285.479 32.2539C286.156 31.7852 286.631 31.1471 286.905 30.3398C287.191 29.5195 287.334 28.6081 287.334 27.6055ZM312.731 31.9414V15.8672H318.356V37H313.063L312.731 31.9414ZM313.356 27.6055L315.016 27.5664C315.016 28.9727 314.854 30.2812 314.528 31.4922C314.203 32.6901 313.714 33.7318 313.063 34.6172C312.412 35.4896 311.592 36.1732 310.602 36.668C309.613 37.1497 308.447 37.3906 307.106 37.3906C306.078 37.3906 305.127 37.2474 304.255 36.9609C303.395 36.6615 302.653 36.1992 302.028 35.5742C301.416 34.9362 300.934 34.1224 300.583 33.1328C300.244 32.1302 300.075 30.9258 300.075 29.5195V15.8672H305.7V29.5586C305.7 30.1836 305.772 30.7109 305.915 31.1406C306.071 31.5703 306.286 31.9219 306.559 32.1953C306.833 32.4688 307.152 32.6641 307.516 32.7812C307.894 32.8984 308.311 32.957 308.766 32.957C309.925 32.957 310.837 32.7227 311.501 32.2539C312.178 31.7852 312.653 31.1471 312.927 30.3398C313.213 29.5195 313.356 28.6081 313.356 27.6055ZM338.753 31.9414V15.8672H344.378V37H339.085L338.753 31.9414ZM339.378 27.6055L341.038 27.5664C341.038 28.9727 340.876 30.2812 340.55 31.4922C340.224 32.6901 339.736 33.7318 339.085 34.6172C338.434 35.4896 337.614 36.1732 336.624 36.668C335.635 37.1497 334.469 37.3906 333.128 37.3906C332.099 37.3906 331.149 37.2474 330.277 36.9609C329.417 36.6615 328.675 36.1992 328.05 35.5742C327.438 34.9362 326.956 34.1224 326.605 33.1328C326.266 32.1302 326.097 30.9258 326.097 29.5195V15.8672H331.722V29.5586C331.722 30.1836 331.793 30.7109 331.937 31.1406C332.093 31.5703 332.308 31.9219 332.581 32.1953C332.855 32.4688 333.174 32.6641 333.538 32.7812C333.916 32.8984 334.333 32.957 334.788 32.957C335.947 32.957 336.859 32.7227 337.523 32.2539C338.2 31.7852 338.675 31.1471 338.948 30.3398C339.235 29.5195 339.378 28.6081 339.378 27.6055ZM364.775 31.9414V15.8672H370.4V37H365.107L364.775 31.9414ZM365.4 27.6055L367.06 27.5664C367.06 28.9727 366.897 30.2812 366.572 31.4922C366.246 32.6901 365.758 33.7318 365.107 34.6172C364.456 35.4896 363.636 36.1732 362.646 36.668C361.657 37.1497 360.491 37.3906 359.15 37.3906C358.121 37.3906 357.171 37.2474 356.298 36.9609C355.439 36.6615 354.697 36.1992 354.072 35.5742C353.46 34.9362 352.978 34.1224 352.627 33.1328C352.288 32.1302 352.119 30.9258 352.119 29.5195V15.8672H357.744V29.5586C357.744 30.1836 357.815 30.7109 357.959 31.1406C358.115 31.5703 358.33 31.9219 358.603 32.1953C358.877 32.4688 359.196 32.6641 359.56 32.7812C359.938 32.8984 360.354 32.957 360.81 32.957C361.969 32.957 362.88 32.7227 363.545 32.2539C364.222 31.7852 364.697 31.1471 364.97 30.3398C365.257 29.5195 365.4 28.6081 365.4 27.6055ZM390.797 31.9414V15.8672H396.422V37H391.129L390.797 31.9414ZM391.422 27.6055L393.082 27.5664C393.082 28.9727 392.919 30.2812 392.594 31.4922C392.268 32.6901 391.78 33.7318 391.129 34.6172C390.478 35.4896 389.658 36.1732 388.668 36.668C387.678 37.1497 386.513 37.3906 385.172 37.3906C384.143 37.3906 383.193 37.2474 382.32 36.9609C381.461 36.6615 380.719 36.1992 380.094 35.5742C379.482 34.9362 379 34.1224 378.648 33.1328C378.31 32.1302 378.141 30.9258 378.141 29.5195V15.8672H383.766V29.5586C383.766 30.1836 383.837 30.7109 383.98 31.1406C384.137 31.5703 384.352 31.9219 384.625 32.1953C384.898 32.4688 385.217 32.6641 385.582 32.7812C385.96 32.8984 386.376 32.957 386.832 32.957C387.991 32.957 388.902 32.7227 389.566 32.2539C390.243 31.7852 390.719 31.1471 390.992 30.3398C391.279 29.5195 391.422 28.6081 391.422 27.6055ZM416.819 31.9414V15.8672H422.444V37H417.151L416.819 31.9414ZM417.444 27.6055L419.104 27.5664C419.104 28.9727 418.941 30.2812 418.616 31.4922C418.29 32.6901 417.802 33.7318 417.151 34.6172C416.5 35.4896 415.679 36.1732 414.69 36.668C413.7 37.1497 412.535 37.3906 411.194 37.3906C410.165 37.3906 409.215 37.2474 408.342 36.9609C407.483 36.6615 406.741 36.1992 406.116 35.5742C405.504 34.9362 405.022 34.1224 404.67 33.1328C404.332 32.1302 404.163 30.9258 404.163 29.5195V15.8672H409.788V29.5586C409.788 30.1836 409.859 30.7109 410.002 31.1406C410.159 31.5703 410.373 31.9219 410.647 32.1953C410.92 32.4688 411.239 32.6641 411.604 32.7812C411.982 32.8984 412.398 32.957 412.854 32.957C414.013 32.957 414.924 32.7227 415.588 32.2539C416.265 31.7852 416.741 31.1471 417.014 30.3398C417.301 29.5195 417.444 28.6081 417.444 27.6055ZM435.966 19.9297V45.125H430.341V15.8672H435.555L435.966 19.9297ZM449.345 26.1992V26.6094C449.345 28.1458 449.162 29.5716 448.798 30.8867C448.446 32.2018 447.925 33.3477 447.235 34.3242C446.545 35.2878 445.686 36.043 444.657 36.5898C443.641 37.1237 442.47 37.3906 441.141 37.3906C439.852 37.3906 438.733 37.1302 437.782 36.6094C436.832 36.0885 436.031 35.3594 435.38 34.4219C434.742 33.4714 434.227 32.3711 433.837 31.1211C433.446 29.8711 433.147 28.5299 432.938 27.0977V26.0234C433.147 24.487 433.446 23.0807 433.837 21.8047C434.227 20.5156 434.742 19.4023 435.38 18.4648C436.031 17.5143 436.825 16.7786 437.762 16.2578C438.713 15.737 439.826 15.4766 441.102 15.4766C442.443 15.4766 443.622 15.7305 444.637 16.2383C445.666 16.7461 446.526 17.4753 447.216 18.4258C447.919 19.3763 448.446 20.5091 448.798 21.8242C449.162 23.1393 449.345 24.5977 449.345 26.1992ZM443.7 26.6094V26.1992C443.7 25.3008 443.622 24.474 443.466 23.7188C443.322 22.9505 443.088 22.2799 442.762 21.707C442.45 21.1341 442.033 20.6914 441.512 20.3789C441.005 20.0534 440.386 19.8906 439.657 19.8906C438.889 19.8906 438.231 20.0143 437.684 20.2617C437.151 20.5091 436.714 20.8672 436.376 21.3359C436.037 21.8047 435.783 22.3646 435.614 23.0156C435.445 23.6667 435.341 24.4023 435.302 25.2227V27.9375C435.367 28.901 435.549 29.7669 435.848 30.5352C436.148 31.2904 436.61 31.8893 437.235 32.332C437.86 32.7747 438.68 32.9961 439.696 32.9961C440.438 32.9961 441.063 32.8333 441.571 32.5078C442.079 32.1693 442.489 31.707 442.802 31.1211C443.127 30.5352 443.355 29.8581 443.485 29.0898C443.628 28.3216 443.7 27.4948 443.7 26.6094ZM462.066 19.9297V45.125H456.441V15.8672H461.655L462.066 19.9297ZM475.445 26.1992V26.6094C475.445 28.1458 475.262 29.5716 474.898 30.8867C474.546 32.2018 474.025 33.3477 473.335 34.3242C472.645 35.2878 471.786 36.043 470.757 36.5898C469.741 37.1237 468.57 37.3906 467.241 37.3906C465.952 37.3906 464.833 37.1302 463.882 36.6094C462.932 36.0885 462.131 35.3594 461.48 34.4219C460.842 33.4714 460.327 32.3711 459.937 31.1211C459.546 29.8711 459.247 28.5299 459.038 27.0977V26.0234C459.247 24.487 459.546 23.0807 459.937 21.8047C460.327 20.5156 460.842 19.4023 461.48 18.4648C462.131 17.5143 462.925 16.7786 463.863 16.2578C464.813 15.737 465.926 15.4766 467.202 15.4766C468.543 15.4766 469.722 15.7305 470.738 16.2383C471.766 16.7461 472.626 17.4753 473.316 18.4258C474.019 19.3763 474.546 20.5091 474.898 21.8242C475.262 23.1393 475.445 24.5977 475.445 26.1992ZM469.8 26.6094V26.1992C469.8 25.3008 469.722 24.474 469.566 23.7188C469.422 22.9505 469.188 22.2799 468.863 21.707C468.55 21.1341 468.133 20.6914 467.613 20.3789C467.105 20.0534 466.486 19.8906 465.757 19.8906C464.989 19.8906 464.331 20.0143 463.784 20.2617C463.251 20.5091 462.814 20.8672 462.476 21.3359C462.137 21.8047 461.883 22.3646 461.714 23.0156C461.545 23.6667 461.441 24.4023 461.402 25.2227V27.9375C461.467 28.901 461.649 29.7669 461.948 30.5352C462.248 31.2904 462.71 31.8893 463.335 32.332C463.96 32.7747 464.78 32.9961 465.796 32.9961C466.538 32.9961 467.163 32.8333 467.671 32.5078C468.179 32.1693 468.589 31.707 468.902 31.1211C469.227 30.5352 469.455 29.8581 469.585 29.0898C469.728 28.3216 469.8 27.4948 469.8 26.6094ZM488.166 19.9297V45.125H482.541V15.8672H487.755L488.166 19.9297ZM501.545 26.1992V26.6094C501.545 28.1458 501.362 29.5716 500.998 30.8867C500.646 32.2018 500.125 33.3477 499.435 34.3242C498.745 35.2878 497.886 36.043 496.857 36.5898C495.841 37.1237 494.67 37.3906 493.341 37.3906C492.052 37.3906 490.933 37.1302 489.982 36.6094C489.032 36.0885 488.231 35.3594 487.58 34.4219C486.942 33.4714 486.427 32.3711 486.037 31.1211C485.646 29.8711 485.347 28.5299 485.138 27.0977V26.0234C485.347 24.487 485.646 23.0807 486.037 21.8047C486.427 20.5156 486.942 19.4023 487.58 18.4648C488.231 17.5143 489.025 16.7786 489.962 16.2578C490.913 15.737 492.026 15.4766 493.302 15.4766C494.643 15.4766 495.822 15.7305 496.837 16.2383C497.866 16.7461 498.726 17.4753 499.416 18.4258C500.119 19.3763 500.646 20.5091 500.998 21.8242C501.362 23.1393 501.545 24.5977 501.545 26.1992ZM495.9 26.6094V26.1992C495.9 25.3008 495.822 24.474 495.666 23.7188C495.522 22.9505 495.288 22.2799 494.962 21.707C494.65 21.1341 494.233 20.6914 493.712 20.3789C493.205 20.0534 492.586 19.8906 491.857 19.8906C491.089 19.8906 490.431 20.0143 489.884 20.2617C489.351 20.5091 488.914 20.8672 488.576 21.3359C488.237 21.8047 487.983 22.3646 487.814 23.0156C487.645 23.6667 487.541 24.4023 487.502 25.2227V27.9375C487.567 28.901 487.749 29.7669 488.048 30.5352C488.348 31.2904 488.81 31.8893 489.435 32.332C490.06 32.7747 490.88 32.9961 491.896 32.9961C492.638 32.9961 493.263 32.8333 493.771 32.5078C494.279 32.1693 494.689 31.707 495.002 31.1211C495.327 30.5352 495.555 29.8581 495.685 29.0898C495.828 28.3216 495.9 27.4948 495.9 26.6094ZM514.266 19.9297V45.125H508.641V15.8672H513.855L514.266 19.9297ZM527.645 26.1992V26.6094C527.645 28.1458 527.462 29.5716 527.098 30.8867C526.746 32.2018 526.225 33.3477 525.535 34.3242C524.845 35.2878 523.986 36.043 522.957 36.5898C521.941 37.1237 520.77 37.3906 519.441 37.3906C518.152 37.3906 517.033 37.1302 516.082 36.6094C515.132 36.0885 514.331 35.3594 513.68 34.4219C513.042 33.4714 512.527 32.3711 512.137 31.1211C511.746 29.8711 511.447 28.5299 511.238 27.0977V26.0234C511.447 24.487 511.746 23.0807 512.137 21.8047C512.527 20.5156 513.042 19.4023 513.68 18.4648C514.331 17.5143 515.125 16.7786 516.062 16.2578C517.013 15.737 518.126 15.4766 519.402 15.4766C520.743 15.4766 521.922 15.7305 522.938 16.2383C523.966 16.7461 524.826 17.4753 525.516 18.4258C526.219 19.3763 526.746 20.5091 527.098 21.8242C527.462 23.1393 527.645 24.5977 527.645 26.1992ZM522 26.6094V26.1992C522 25.3008 521.922 24.474 521.766 23.7188C521.622 22.9505 521.388 22.2799 521.062 21.707C520.75 21.1341 520.333 20.6914 519.812 20.3789C519.305 20.0534 518.686 19.8906 517.957 19.8906C517.189 19.8906 516.531 20.0143 515.984 20.2617C515.451 20.5091 515.014 20.8672 514.676 21.3359C514.337 21.8047 514.083 22.3646 513.914 23.0156C513.745 23.6667 513.641 24.4023 513.602 25.2227V27.9375C513.667 28.901 513.849 29.7669 514.148 30.5352C514.448 31.2904 514.91 31.8893 515.535 32.332C516.16 32.7747 516.98 32.9961 517.996 32.9961C518.738 32.9961 519.363 32.8333 519.871 32.5078C520.379 32.1693 520.789 31.707 521.102 31.1211C521.427 30.5352 521.655 29.8581 521.785 29.0898C521.928 28.3216 522 27.4948 522 26.6094ZM540.366 19.9297V45.125H534.741V15.8672H539.955L540.366 19.9297ZM553.745 26.1992V26.6094C553.745 28.1458 553.562 29.5716 553.198 30.8867C552.846 32.2018 552.325 33.3477 551.635 34.3242C550.945 35.2878 550.086 36.043 549.057 36.5898C548.041 37.1237 546.87 37.3906 545.541 37.3906C544.252 37.3906 543.133 37.1302 542.182 36.6094C541.232 36.0885 540.431 35.3594 539.78 34.4219C539.142 33.4714 538.627 32.3711 538.237 31.1211C537.846 29.8711 537.547 28.5299 537.338 27.0977V26.0234C537.547 24.487 537.846 23.0807 538.237 21.8047C538.627 20.5156 539.142 19.4023 539.78 18.4648C540.431 17.5143 541.225 16.7786 542.163 16.2578C543.113 15.737 544.226 15.4766 545.502 15.4766C546.843 15.4766 548.022 15.7305 549.038 16.2383C550.066 16.7461 550.926 17.4753 551.616 18.4258C552.319 19.3763 552.846 20.5091 553.198 21.8242C553.562 23.1393 553.745 24.5977 553.745 26.1992ZM548.1 26.6094V26.1992C548.1 25.3008 548.022 24.474 547.866 23.7188C547.722 22.9505 547.488 22.2799 547.163 21.707C546.85 21.1341 546.433 20.6914 545.913 20.3789C545.405 20.0534 544.786 19.8906 544.057 19.8906C543.289 19.8906 542.631 20.0143 542.084 20.2617C541.551 20.5091 541.114 20.8672 540.776 21.3359C540.437 21.8047 540.183 22.3646 540.014 23.0156C539.845 23.6667 539.741 24.4023 539.702 25.2227V27.9375C539.767 28.901 539.949 29.7669 540.248 30.5352C540.548 31.2904 541.01 31.8893 541.635 32.332C542.26 32.7747 543.08 32.9961 544.096 32.9961C544.838 32.9961 545.463 32.8333 545.971 32.5078C546.479 32.1693 546.889 31.707 547.202 31.1211C547.527 30.5352 547.755 29.8581 547.885 29.0898C548.028 28.3216 548.1 27.4948 548.1 26.6094ZM572.266 31.1602C572.266 30.7565 572.149 30.3919 571.915 30.0664C571.68 29.7409 571.244 29.4414 570.606 29.168C569.981 28.8815 569.076 28.6211 567.891 28.3867C566.824 28.1523 565.828 27.8594 564.903 27.5078C563.992 27.1432 563.197 26.707 562.52 26.1992C561.856 25.6914 561.335 25.0924 560.958 24.4023C560.58 23.6992 560.391 22.8984 560.391 22C560.391 21.1146 560.58 20.2812 560.958 19.5C561.348 18.7188 561.902 18.0286 562.618 17.4297C563.347 16.8177 564.233 16.3424 565.274 16.0039C566.329 15.6523 567.514 15.4766 568.829 15.4766C570.665 15.4766 572.24 15.7695 573.555 16.3555C574.884 16.9414 575.899 17.7487 576.602 18.7773C577.319 19.793 577.677 20.9518 577.677 22.2539H572.052C572.052 21.707 571.934 21.2188 571.7 20.7891C571.479 20.3464 571.127 20.0013 570.645 19.7539C570.177 19.4935 569.565 19.3633 568.809 19.3633C568.184 19.3633 567.644 19.474 567.188 19.6953C566.733 19.9036 566.381 20.1901 566.134 20.5547C565.899 20.9062 565.782 21.2969 565.782 21.7266C565.782 22.0521 565.847 22.3451 565.977 22.6055C566.121 22.8529 566.348 23.0807 566.661 23.2891C566.973 23.4974 567.377 23.6927 567.872 23.875C568.38 24.0443 569.005 24.2005 569.747 24.3438C571.27 24.6562 572.631 25.0664 573.829 25.5742C575.027 26.069 575.977 26.7461 576.68 27.6055C577.384 28.4518 577.735 29.5651 577.735 30.9453C577.735 31.8828 577.527 32.7422 577.11 33.5234C576.694 34.3047 576.095 34.9883 575.313 35.5742C574.532 36.1471 573.595 36.5964 572.501 36.9219C571.42 37.2344 570.203 37.3906 568.848 37.3906C566.882 37.3906 565.216 37.0391 563.848 36.3359C562.494 35.6328 561.466 34.7409 560.763 33.6602C560.072 32.5664 559.727 31.4466 559.727 30.3008H565.059C565.085 31.069 565.281 31.6875 565.645 32.1562C566.023 32.625 566.498 32.9635 567.071 33.1719C567.657 33.3802 568.289 33.4844 568.966 33.4844C569.695 33.4844 570.3 33.3867 570.782 33.1914C571.264 32.9831 571.628 32.7096 571.876 32.3711C572.136 32.0195 572.266 31.6159 572.266 31.1602ZM596.413 31.1602C596.413 30.7565 596.296 30.3919 596.062 30.0664C595.827 29.7409 595.391 29.4414 594.753 29.168C594.128 28.8815 593.223 28.6211 592.038 28.3867C590.971 28.1523 589.974 27.8594 589.05 27.5078C588.139 27.1432 587.344 26.707 586.667 26.1992C586.003 25.6914 585.482 25.0924 585.105 24.4023C584.727 23.6992 584.538 22.8984 584.538 22C584.538 21.1146 584.727 20.2812 585.105 19.5C585.495 18.7188 586.049 18.0286 586.765 17.4297C587.494 16.8177 588.379 16.3424 589.421 16.0039C590.476 15.6523 591.661 15.4766 592.976 15.4766C594.812 15.4766 596.387 15.7695 597.702 16.3555C599.03 16.9414 600.046 17.7487 600.749 18.7773C601.465 19.793 601.823 20.9518 601.823 22.2539H596.198C596.198 21.707 596.081 21.2188 595.847 20.7891C595.626 20.3464 595.274 20.0013 594.792 19.7539C594.323 19.4935 593.711 19.3633 592.956 19.3633C592.331 19.3633 591.791 19.474 591.335 19.6953C590.879 19.9036 590.528 20.1901 590.28 20.5547C590.046 20.9062 589.929 21.2969 589.929 21.7266C589.929 22.0521 589.994 22.3451 590.124 22.6055C590.267 22.8529 590.495 23.0807 590.808 23.2891C591.12 23.4974 591.524 23.6927 592.019 23.875C592.527 24.0443 593.152 24.2005 593.894 24.3438C595.417 24.6562 596.778 25.0664 597.976 25.5742C599.174 26.069 600.124 26.7461 600.827 27.6055C601.53 28.4518 601.882 29.5651 601.882 30.9453C601.882 31.8828 601.674 32.7422 601.257 33.5234C600.84 34.3047 600.241 34.9883 599.46 35.5742C598.679 36.1471 597.741 36.5964 596.648 36.9219C595.567 37.2344 594.349 37.3906 592.995 37.3906C591.029 37.3906 589.362 37.0391 587.995 36.3359C586.641 35.6328 585.612 34.7409 584.909 33.6602C584.219 32.5664 583.874 31.4466 583.874 30.3008H589.206C589.232 31.069 589.428 31.6875 589.792 32.1562C590.17 32.625 590.645 32.9635 591.218 33.1719C591.804 33.3802 592.435 33.4844 593.112 33.4844C593.842 33.4844 594.447 33.3867 594.929 33.1914C595.411 32.9831 595.775 32.7096 596.023 32.3711C596.283 32.0195 596.413 31.6159 596.413 31.1602ZM620.56 31.1602C620.56 30.7565 620.443 30.3919 620.209 30.0664C619.974 29.7409 619.538 29.4414 618.9 29.168C618.275 28.8815 617.37 28.6211 616.185 28.3867C615.117 28.1523 614.121 27.8594 613.197 27.5078C612.285 27.1432 611.491 26.707 610.814 26.1992C610.15 25.6914 609.629 25.0924 609.252 24.4023C608.874 23.6992 608.685 22.8984 608.685 22C608.685 21.1146 608.874 20.2812 609.252 19.5C609.642 18.7188 610.196 18.0286 610.912 17.4297C611.641 16.8177 612.526 16.3424 613.568 16.0039C614.623 15.6523 615.808 15.4766 617.123 15.4766C618.959 15.4766 620.534 15.7695 621.849 16.3555C623.177 16.9414 624.193 17.7487 624.896 18.7773C625.612 19.793 625.97 20.9518 625.97 22.2539H620.345C620.345 21.707 620.228 21.2188 619.994 20.7891C619.772 20.3464 619.421 20.0013 618.939 19.7539C618.47 19.4935 617.858 19.3633 617.103 19.3633C616.478 19.3633 615.938 19.474 615.482 19.6953C615.026 19.9036 614.675 20.1901 614.427 20.5547C614.193 20.9062 614.076 21.2969 614.076 21.7266C614.076 22.0521 614.141 22.3451 614.271 22.6055C614.414 22.8529 614.642 23.0807 614.955 23.2891C615.267 23.4974 615.671 23.6927 616.166 23.875C616.673 24.0443 617.298 24.2005 618.041 24.3438C619.564 24.6562 620.925 25.0664 622.123 25.5742C623.321 26.069 624.271 26.7461 624.974 27.6055C625.677 28.4518 626.029 29.5651 626.029 30.9453C626.029 31.8828 625.821 32.7422 625.404 33.5234C624.987 34.3047 624.388 34.9883 623.607 35.5742C622.826 36.1471 621.888 36.5964 620.795 36.9219C619.714 37.2344 618.496 37.3906 617.142 37.3906C615.176 37.3906 613.509 37.0391 612.142 36.3359C610.788 35.6328 609.759 34.7409 609.056 33.6602C608.366 32.5664 608.021 31.4466 608.021 30.3008H613.353C613.379 31.069 613.574 31.6875 613.939 32.1562C614.317 32.625 614.792 32.9635 615.365 33.1719C615.951 33.3802 616.582 33.4844 617.259 33.4844C617.989 33.4844 618.594 33.3867 619.076 33.1914C619.558 32.9831 619.922 32.7096 620.17 32.3711C620.43 32.0195 620.56 31.6159 620.56 31.1602ZM633.555 34.2852C633.555 33.4518 633.841 32.7552 634.414 32.1953C635 31.6354 635.775 31.3555 636.738 31.3555C637.702 31.3555 638.47 31.6354 639.043 32.1953C639.629 32.7552 639.922 33.4518 639.922 34.2852C639.922 35.1185 639.629 35.8151 639.043 36.375C638.47 36.9349 637.702 37.2148 636.738 37.2148C635.775 37.2148 635 36.9349 634.414 36.375C633.841 35.8151 633.555 35.1185 633.555 34.2852ZM648.756 34.2852C648.756 33.4518 649.043 32.7552 649.616 32.1953C650.202 31.6354 650.976 31.3555 651.94 31.3555C652.903 31.3555 653.672 31.6354 654.245 32.1953C654.83 32.7552 655.123 33.4518 655.123 34.2852C655.123 35.1185 654.83 35.8151 654.245 36.375C653.672 36.9349 652.903 37.2148 651.94 37.2148C650.976 37.2148 650.202 36.9349 649.616 36.375C649.043 35.8151 648.756 35.1185 648.756 34.2852ZM663.958 34.2852C663.958 33.4518 664.244 32.7552 664.817 32.1953C665.403 31.6354 666.178 31.3555 667.141 31.3555C668.105 31.3555 668.873 31.6354 669.446 32.1953C670.032 32.7552 670.325 33.4518 670.325 34.2852C670.325 35.1185 670.032 35.8151 669.446 36.375C668.873 36.9349 668.105 37.2148 667.141 37.2148C666.178 37.2148 665.403 36.9349 664.817 36.375C664.244 35.8151 663.958 35.1185 663.958 34.2852Z" fill="#153989"/>
<path d="M270.82 573.027V583H268.652V570.32H270.703L270.82 573.027ZM270.305 576.18L269.402 576.145C269.41 575.277 269.539 574.477 269.789 573.742C270.039 573 270.391 572.355 270.844 571.809C271.297 571.262 271.836 570.84 272.461 570.543C273.094 570.238 273.793 570.086 274.559 570.086C275.184 570.086 275.746 570.172 276.246 570.344C276.746 570.508 277.172 570.773 277.523 571.141C277.883 571.508 278.156 571.984 278.344 572.57C278.531 573.148 278.625 573.855 278.625 574.691V583H276.445V574.668C276.445 574.004 276.348 573.473 276.152 573.074C275.957 572.668 275.672 572.375 275.297 572.195C274.922 572.008 274.461 571.914 273.914 571.914C273.375 571.914 272.883 572.027 272.438 572.254C272 572.48 271.621 572.793 271.301 573.191C270.988 573.59 270.742 574.047 270.562 574.562C270.391 575.07 270.305 575.609 270.305 576.18ZM283.504 576.801V576.531C283.504 575.617 283.637 574.77 283.902 573.988C284.168 573.199 284.551 572.516 285.051 571.938C285.551 571.352 286.156 570.898 286.867 570.578C287.578 570.25 288.375 570.086 289.258 570.086C290.148 570.086 290.949 570.25 291.66 570.578C292.379 570.898 292.988 571.352 293.488 571.938C293.996 572.516 294.383 573.199 294.648 573.988C294.914 574.77 295.047 575.617 295.047 576.531V576.801C295.047 577.715 294.914 578.562 294.648 579.344C294.383 580.125 293.996 580.809 293.488 581.395C292.988 581.973 292.383 582.426 291.672 582.754C290.969 583.074 290.172 583.234 289.281 583.234C288.39 583.234 287.59 583.074 286.879 582.754C286.168 582.426 285.558 581.973 285.051 581.395C284.551 580.809 284.168 580.125 283.902 579.344C283.637 578.562 283.504 577.715 283.504 576.801ZM285.672 576.531V576.801C285.672 577.434 285.746 578.031 285.894 578.594C286.043 579.148 286.265 579.641 286.562 580.07C286.867 580.5 287.246 580.84 287.699 581.09C288.152 581.332 288.68 581.453 289.281 581.453C289.875 581.453 290.394 581.332 290.84 581.09C291.293 580.84 291.668 580.5 291.965 580.07C292.262 579.641 292.484 579.148 292.633 578.594C292.789 578.031 292.867 577.434 292.867 576.801V576.531C292.867 575.906 292.789 575.316 292.633 574.762C292.484 574.199 292.258 573.703 291.953 573.273C291.656 572.836 291.281 572.492 290.828 572.242C290.383 571.992 289.859 571.867 289.258 571.867C288.664 571.867 288.14 571.992 287.687 572.242C287.242 572.492 286.867 572.836 286.562 573.273C286.265 573.703 286.043 574.199 285.894 574.762C285.746 575.316 285.672 575.906 285.672 576.531ZM310.207 565V583H308.039V565H310.207ZM309.691 576.18L308.789 576.145C308.796 575.277 308.925 574.477 309.175 573.742C309.425 573 309.777 572.355 310.23 571.809C310.683 571.262 311.222 570.84 311.847 570.543C312.48 570.238 313.179 570.086 313.945 570.086C314.57 570.086 315.132 570.172 315.632 570.344C316.132 570.508 316.558 570.773 316.91 571.141C317.269 571.508 317.542 571.984 317.73 572.57C317.917 573.148 318.011 573.855 318.011 574.691V583H315.832V574.668C315.832 574.004 315.734 573.473 315.539 573.074C315.343 572.668 315.058 572.375 314.683 572.195C314.308 572.008 313.847 571.914 313.3 571.914C312.761 571.914 312.269 572.027 311.824 572.254C311.386 572.48 311.007 572.793 310.687 573.191C310.375 573.59 310.128 574.047 309.949 574.562C309.777 575.07 309.691 575.609 309.691 576.18ZM328.679 583.234C327.796 583.234 326.995 583.086 326.277 582.789C325.566 582.484 324.952 582.059 324.437 581.512C323.929 580.965 323.538 580.316 323.265 579.566C322.992 578.816 322.855 577.996 322.855 577.105V576.613C322.855 575.582 323.007 574.664 323.312 573.859C323.617 573.047 324.031 572.359 324.554 571.797C325.077 571.234 325.671 570.809 326.335 570.52C326.999 570.23 327.687 570.086 328.398 570.086C329.304 570.086 330.085 570.242 330.742 570.555C331.406 570.867 331.949 571.305 332.37 571.867C332.792 572.422 333.105 573.078 333.308 573.836C333.511 574.586 333.613 575.406 333.613 576.297V577.27H324.144V575.5H331.445V575.336C331.413 574.773 331.296 574.227 331.093 573.695C330.898 573.164 330.585 572.727 330.156 572.383C329.726 572.039 329.14 571.867 328.398 571.867C327.906 571.867 327.452 571.973 327.038 572.184C326.624 572.387 326.269 572.691 325.972 573.098C325.675 573.504 325.445 574 325.281 574.586C325.117 575.172 325.035 575.848 325.035 576.613V577.105C325.035 577.707 325.117 578.273 325.281 578.805C325.452 579.328 325.699 579.789 326.019 580.188C326.347 580.586 326.742 580.898 327.202 581.125C327.671 581.352 328.202 581.465 328.796 581.465C329.562 581.465 330.21 581.309 330.742 580.996C331.273 580.684 331.738 580.266 332.136 579.742L333.449 580.785C333.175 581.199 332.827 581.594 332.406 581.969C331.984 582.344 331.464 582.648 330.847 582.883C330.238 583.117 329.515 583.234 328.679 583.234ZM340.46 572.84V583H338.28V570.32H340.343L340.46 572.84ZM340.015 576.18L339.007 576.145C339.015 575.277 339.128 574.477 339.347 573.742C339.566 573 339.89 572.355 340.32 571.809C340.749 571.262 341.284 570.84 341.925 570.543C342.566 570.238 343.308 570.086 344.152 570.086C344.745 570.086 345.292 570.172 345.792 570.344C346.292 570.508 346.726 570.77 347.093 571.129C347.46 571.488 347.745 571.949 347.948 572.512C348.152 573.074 348.253 573.754 348.253 574.551V583H346.085V574.656C346.085 573.992 345.972 573.461 345.745 573.062C345.527 572.664 345.214 572.375 344.808 572.195C344.402 572.008 343.925 571.914 343.378 571.914C342.738 571.914 342.202 572.027 341.773 572.254C341.343 572.48 340.999 572.793 340.741 573.191C340.484 573.59 340.296 574.047 340.179 574.562C340.07 575.07 340.015 575.609 340.015 576.18ZM348.23 574.984L346.777 575.43C346.784 574.734 346.898 574.066 347.116 573.426C347.343 572.785 347.667 572.215 348.089 571.715C348.519 571.215 349.046 570.82 349.671 570.531C350.296 570.234 351.011 570.086 351.816 570.086C352.495 570.086 353.097 570.176 353.62 570.355C354.152 570.535 354.597 570.812 354.956 571.188C355.323 571.555 355.601 572.027 355.788 572.605C355.976 573.184 356.07 573.871 356.07 574.668V583H353.89V574.645C353.89 573.934 353.777 573.383 353.55 572.992C353.331 572.594 353.019 572.316 352.613 572.16C352.214 571.996 351.738 571.914 351.183 571.914C350.706 571.914 350.284 571.996 349.917 572.16C349.55 572.324 349.241 572.551 348.991 572.84C348.741 573.121 348.55 573.445 348.417 573.812C348.292 574.18 348.23 574.57 348.23 574.984ZM360.937 576.801V576.531C360.937 575.617 361.069 574.77 361.335 573.988C361.601 573.199 361.983 572.516 362.483 571.938C362.983 571.352 363.589 570.898 364.3 570.578C365.011 570.25 365.808 570.086 366.69 570.086C367.581 570.086 368.382 570.25 369.093 570.578C369.812 570.898 370.421 571.352 370.921 571.938C371.429 572.516 371.815 573.199 372.081 573.988C372.347 574.77 372.48 575.617 372.48 576.531V576.801C372.48 577.715 372.347 578.562 372.081 579.344C371.815 580.125 371.429 580.809 370.921 581.395C370.421 581.973 369.815 582.426 369.105 582.754C368.401 583.074 367.605 583.234 366.714 583.234C365.823 583.234 365.022 583.074 364.312 582.754C363.601 582.426 362.991 581.973 362.483 581.395C361.983 580.809 361.601 580.125 361.335 579.344C361.069 578.562 360.937 577.715 360.937 576.801ZM363.105 576.531V576.801C363.105 577.434 363.179 578.031 363.327 578.594C363.476 579.148 363.698 579.641 363.995 580.07C364.3 580.5 364.679 580.84 365.132 581.09C365.585 581.332 366.112 581.453 366.714 581.453C367.308 581.453 367.827 581.332 368.272 581.09C368.726 580.84 369.101 580.5 369.397 580.07C369.694 579.641 369.917 579.148 370.065 578.594C370.222 578.031 370.3 577.434 370.3 576.801V576.531C370.3 575.906 370.222 575.316 370.065 574.762C369.917 574.199 369.69 573.703 369.386 573.273C369.089 572.836 368.714 572.492 368.261 572.242C367.815 571.992 367.292 571.867 366.69 571.867C366.097 571.867 365.573 571.992 365.12 572.242C364.675 572.492 364.3 572.836 363.995 573.273C363.698 573.703 363.476 574.199 363.327 574.762C363.179 575.316 363.105 575.906 363.105 576.531ZM384.741 579.637C384.741 579.324 384.671 579.035 384.53 578.77C384.397 578.496 384.12 578.25 383.698 578.031C383.284 577.805 382.659 577.609 381.823 577.445C381.12 577.297 380.483 577.121 379.913 576.918C379.35 576.715 378.87 576.469 378.472 576.18C378.081 575.891 377.78 575.551 377.569 575.16C377.358 574.77 377.253 574.312 377.253 573.789C377.253 573.289 377.362 572.816 377.581 572.371C377.808 571.926 378.124 571.531 378.53 571.188C378.944 570.844 379.44 570.574 380.018 570.379C380.597 570.184 381.241 570.086 381.952 570.086C382.968 570.086 383.835 570.266 384.554 570.625C385.272 570.984 385.823 571.465 386.206 572.066C386.589 572.66 386.78 573.32 386.78 574.047H384.612C384.612 573.695 384.507 573.355 384.296 573.027C384.093 572.691 383.792 572.414 383.393 572.195C383.003 571.977 382.522 571.867 381.952 571.867C381.35 571.867 380.862 571.961 380.487 572.148C380.12 572.328 379.85 572.559 379.679 572.84C379.515 573.121 379.433 573.418 379.433 573.73C379.433 573.965 379.472 574.176 379.55 574.363C379.636 574.543 379.784 574.711 379.995 574.867C380.206 575.016 380.503 575.156 380.886 575.289C381.268 575.422 381.757 575.555 382.35 575.688C383.39 575.922 384.245 576.203 384.917 576.531C385.589 576.859 386.089 577.262 386.417 577.738C386.745 578.215 386.909 578.793 386.909 579.473C386.909 580.027 386.792 580.535 386.558 580.996C386.331 581.457 385.999 581.855 385.561 582.191C385.132 582.52 384.616 582.777 384.015 582.965C383.421 583.145 382.753 583.234 382.011 583.234C380.893 583.234 379.948 583.035 379.175 582.637C378.401 582.238 377.815 581.723 377.417 581.09C377.018 580.457 376.819 579.789 376.819 579.086H378.999C379.03 579.68 379.202 580.152 379.515 580.504C379.827 580.848 380.21 581.094 380.663 581.242C381.116 581.383 381.565 581.453 382.011 581.453C382.604 581.453 383.1 581.375 383.499 581.219C383.905 581.062 384.214 580.848 384.425 580.574C384.636 580.301 384.741 579.988 384.741 579.637ZM405.292 583.234C404.409 583.234 403.608 583.086 402.889 582.789C402.178 582.484 401.565 582.059 401.049 581.512C400.542 580.965 400.151 580.316 399.878 579.566C399.604 578.816 399.467 577.996 399.467 577.105V576.613C399.467 575.582 399.62 574.664 399.924 573.859C400.229 573.047 400.643 572.359 401.167 571.797C401.69 571.234 402.284 570.809 402.948 570.52C403.612 570.23 404.299 570.086 405.01 570.086C405.917 570.086 406.698 570.242 407.354 570.555C408.018 570.867 408.561 571.305 408.983 571.867C409.405 572.422 409.717 573.078 409.92 573.836C410.124 574.586 410.225 575.406 410.225 576.297V577.27H400.756V575.5H408.057V575.336C408.026 574.773 407.909 574.227 407.706 573.695C407.51 573.164 407.198 572.727 406.768 572.383C406.338 572.039 405.753 571.867 405.01 571.867C404.518 571.867 404.065 571.973 403.651 572.184C403.237 572.387 402.881 572.691 402.585 573.098C402.288 573.504 402.057 574 401.893 574.586C401.729 575.172 401.647 575.848 401.647 576.613V577.105C401.647 577.707 401.729 578.273 401.893 578.805C402.065 579.328 402.311 579.789 402.631 580.188C402.96 580.586 403.354 580.898 403.815 581.125C404.284 581.352 404.815 581.465 405.409 581.465C406.174 581.465 406.823 581.309 407.354 580.996C407.885 580.684 408.35 580.266 408.749 579.742L410.061 580.785C409.788 581.199 409.44 581.594 409.018 581.969C408.596 582.344 408.077 582.648 407.46 582.883C406.85 583.117 406.128 583.234 405.292 583.234ZM417.084 573.027V583H414.916V570.32H416.967L417.084 573.027ZM416.569 576.18L415.666 576.145C415.674 575.277 415.803 574.477 416.053 573.742C416.303 573 416.655 572.355 417.108 571.809C417.561 571.262 418.1 570.84 418.725 570.543C419.358 570.238 420.057 570.086 420.823 570.086C421.448 570.086 422.01 570.172 422.51 570.344C423.01 570.508 423.436 570.773 423.788 571.141C424.147 571.508 424.42 571.984 424.608 572.57C424.795 573.148 424.889 573.855 424.889 574.691V583H422.709V574.668C422.709 574.004 422.612 573.473 422.416 573.074C422.221 572.668 421.936 572.375 421.561 572.195C421.186 572.008 420.725 571.914 420.178 571.914C419.639 571.914 419.147 572.027 418.702 572.254C418.264 572.48 417.885 572.793 417.565 573.191C417.252 573.59 417.006 574.047 416.827 574.562C416.655 575.07 416.569 575.609 416.569 576.18ZM435.416 581.453C435.932 581.453 436.408 581.348 436.846 581.137C437.283 580.926 437.643 580.637 437.924 580.27C438.205 579.895 438.365 579.469 438.405 578.992H440.467C440.428 579.742 440.174 580.441 439.705 581.09C439.244 581.73 438.639 582.25 437.889 582.648C437.139 583.039 436.315 583.234 435.416 583.234C434.463 583.234 433.631 583.066 432.92 582.73C432.217 582.395 431.631 581.934 431.162 581.348C430.701 580.762 430.354 580.09 430.119 579.332C429.893 578.566 429.78 577.758 429.78 576.906V576.414C429.78 575.562 429.893 574.758 430.119 574C430.354 573.234 430.701 572.559 431.162 571.973C431.631 571.387 432.217 570.926 432.92 570.59C433.631 570.254 434.463 570.086 435.416 570.086C436.408 570.086 437.276 570.289 438.018 570.695C438.76 571.094 439.342 571.641 439.764 572.336C440.194 573.023 440.428 573.805 440.467 574.68H438.405C438.365 574.156 438.217 573.684 437.959 573.262C437.709 572.84 437.365 572.504 436.928 572.254C436.498 571.996 435.994 571.867 435.416 571.867C434.752 571.867 434.194 572 433.74 572.266C433.295 572.523 432.94 572.875 432.674 573.32C432.416 573.758 432.229 574.246 432.112 574.785C432.002 575.316 431.947 575.859 431.947 576.414V576.906C431.947 577.461 432.002 578.008 432.112 578.547C432.221 579.086 432.405 579.574 432.662 580.012C432.928 580.449 433.283 580.801 433.729 581.066C434.182 581.324 434.744 581.453 435.416 581.453ZM444.49 576.801V576.531C444.49 575.617 444.623 574.77 444.889 573.988C445.154 573.199 445.537 572.516 446.037 571.938C446.537 571.352 447.143 570.898 447.854 570.578C448.565 570.25 449.361 570.086 450.244 570.086C451.135 570.086 451.936 570.25 452.647 570.578C453.365 570.898 453.975 571.352 454.475 571.938C454.982 572.516 455.369 573.199 455.635 573.988C455.9 574.77 456.033 575.617 456.033 576.531V576.801C456.033 577.715 455.9 578.562 455.635 579.344C455.369 580.125 454.982 580.809 454.475 581.395C453.975 581.973 453.369 582.426 452.658 582.754C451.955 583.074 451.158 583.234 450.268 583.234C449.377 583.234 448.576 583.074 447.865 582.754C447.154 582.426 446.545 581.973 446.037 581.395C445.537 580.809 445.154 580.125 444.889 579.344C444.623 578.562 444.49 577.715 444.49 576.801ZM446.658 576.531V576.801C446.658 577.434 446.732 578.031 446.881 578.594C447.029 579.148 447.252 579.641 447.549 580.07C447.854 580.5 448.232 580.84 448.686 581.09C449.139 581.332 449.666 581.453 450.268 581.453C450.861 581.453 451.381 581.332 451.826 581.09C452.279 580.84 452.654 580.5 452.951 580.07C453.248 579.641 453.471 579.148 453.619 578.594C453.775 578.031 453.854 577.434 453.854 576.801V576.531C453.854 575.906 453.775 575.316 453.619 574.762C453.471 574.199 453.244 573.703 452.94 573.273C452.643 572.836 452.268 572.492 451.815 572.242C451.369 571.992 450.846 571.867 450.244 571.867C449.65 571.867 449.127 571.992 448.674 572.242C448.229 572.492 447.854 572.836 447.549 573.273C447.252 573.703 447.029 574.199 446.881 574.762C446.732 575.316 446.658 575.906 446.658 576.531ZM463.08 573.027V583H460.912V570.32H462.963L463.08 573.027ZM462.564 576.18L461.662 576.145C461.67 575.277 461.799 574.477 462.049 573.742C462.299 573 462.65 572.355 463.103 571.809C463.557 571.262 464.096 570.84 464.721 570.543C465.353 570.238 466.053 570.086 466.818 570.086C467.443 570.086 468.006 570.172 468.506 570.344C469.006 570.508 469.432 570.773 469.783 571.141C470.143 571.508 470.416 571.984 470.603 572.57C470.791 573.148 470.885 573.855 470.885 574.691V583H468.705V574.668C468.705 574.004 468.607 573.473 468.412 573.074C468.217 572.668 467.932 572.375 467.557 572.195C467.182 572.008 466.721 571.914 466.174 571.914C465.635 571.914 465.143 572.027 464.697 572.254C464.26 572.48 463.881 572.793 463.56 573.191C463.248 573.59 463.002 574.047 462.822 574.562C462.65 575.07 462.564 575.609 462.564 576.18ZM481.646 570.32V571.984H474.791V570.32H481.646ZM477.111 567.238H479.279V579.859C479.279 580.289 479.345 580.613 479.478 580.832C479.611 581.051 479.783 581.195 479.994 581.266C480.205 581.336 480.431 581.371 480.674 581.371C480.853 581.371 481.041 581.355 481.236 581.324C481.439 581.285 481.592 581.254 481.693 581.23L481.705 583C481.533 583.055 481.306 583.105 481.025 583.152C480.752 583.207 480.42 583.234 480.029 583.234C479.498 583.234 479.01 583.129 478.564 582.918C478.119 582.707 477.763 582.355 477.498 581.863C477.24 581.363 477.111 580.691 477.111 579.848V567.238ZM488.517 572.312V583H486.349V570.32H488.459L488.517 572.312ZM492.478 570.25L492.466 572.266C492.287 572.227 492.115 572.203 491.951 572.195C491.795 572.18 491.615 572.172 491.412 572.172C490.912 572.172 490.47 572.25 490.087 572.406C489.705 572.562 489.38 572.781 489.115 573.062C488.849 573.344 488.638 573.68 488.482 574.07C488.334 574.453 488.236 574.875 488.189 575.336L487.58 575.688C487.58 574.922 487.654 574.203 487.802 573.531C487.959 572.859 488.197 572.266 488.517 571.75C488.837 571.227 489.244 570.82 489.736 570.531C490.236 570.234 490.83 570.086 491.517 570.086C491.673 570.086 491.853 570.105 492.056 570.145C492.259 570.176 492.4 570.211 492.478 570.25ZM503.65 580.832V574.305C503.65 573.805 503.548 573.371 503.345 573.004C503.15 572.629 502.853 572.34 502.455 572.137C502.056 571.934 501.564 571.832 500.978 571.832C500.431 571.832 499.951 571.926 499.537 572.113C499.13 572.301 498.81 572.547 498.576 572.852C498.349 573.156 498.236 573.484 498.236 573.836H496.068C496.068 573.383 496.185 572.934 496.419 572.488C496.654 572.043 496.99 571.641 497.427 571.281C497.872 570.914 498.404 570.625 499.021 570.414C499.646 570.195 500.341 570.086 501.107 570.086C502.029 570.086 502.841 570.242 503.544 570.555C504.255 570.867 504.81 571.34 505.208 571.973C505.615 572.598 505.818 573.383 505.818 574.328V580.234C505.818 580.656 505.853 581.105 505.923 581.582C506.001 582.059 506.115 582.469 506.263 582.812V583H504.001C503.892 582.75 503.806 582.418 503.744 582.004C503.681 581.582 503.65 581.191 503.65 580.832ZM504.025 575.312L504.048 576.836H501.857C501.24 576.836 500.689 576.887 500.205 576.988C499.72 577.082 499.314 577.227 498.986 577.422C498.658 577.617 498.408 577.863 498.236 578.16C498.064 578.449 497.978 578.789 497.978 579.18C497.978 579.578 498.068 579.941 498.247 580.27C498.427 580.598 498.697 580.859 499.056 581.055C499.423 581.242 499.872 581.336 500.404 581.336C501.068 581.336 501.654 581.195 502.162 580.914C502.669 580.633 503.072 580.289 503.369 579.883C503.673 579.477 503.837 579.082 503.861 578.699L504.787 579.742C504.732 580.07 504.583 580.434 504.341 580.832C504.099 581.23 503.775 581.613 503.369 581.98C502.97 582.34 502.494 582.641 501.939 582.883C501.392 583.117 500.775 583.234 500.087 583.234C499.228 583.234 498.474 583.066 497.826 582.73C497.185 582.395 496.685 581.945 496.326 581.383C495.974 580.812 495.798 580.176 495.798 579.473C495.798 578.793 495.931 578.195 496.197 577.68C496.462 577.156 496.845 576.723 497.345 576.379C497.845 576.027 498.447 575.762 499.15 575.582C499.853 575.402 500.638 575.312 501.505 575.312H504.025ZM519.38 580.539V565H521.56V583H519.568L519.38 580.539ZM510.849 576.801V576.555C510.849 575.586 510.966 574.707 511.2 573.918C511.443 573.121 511.783 572.438 512.22 571.867C512.665 571.297 513.193 570.859 513.802 570.555C514.419 570.242 515.107 570.086 515.865 570.086C516.661 570.086 517.357 570.227 517.95 570.508C518.552 570.781 519.06 571.184 519.474 571.715C519.896 572.238 520.228 572.871 520.47 573.613C520.712 574.355 520.88 575.195 520.974 576.133V577.211C520.888 578.141 520.72 578.977 520.47 579.719C520.228 580.461 519.896 581.094 519.474 581.617C519.06 582.141 518.552 582.543 517.95 582.824C517.349 583.098 516.646 583.234 515.841 583.234C515.099 583.234 514.419 583.074 513.802 582.754C513.193 582.434 512.665 581.984 512.22 581.406C511.783 580.828 511.443 580.148 511.2 579.367C510.966 578.578 510.849 577.723 510.849 576.801ZM513.029 576.555V576.801C513.029 577.434 513.091 578.027 513.216 578.582C513.349 579.137 513.552 579.625 513.825 580.047C514.099 580.469 514.447 580.801 514.868 581.043C515.29 581.277 515.794 581.395 516.38 581.395C517.099 581.395 517.689 581.242 518.15 580.938C518.618 580.633 518.993 580.23 519.275 579.73C519.556 579.23 519.775 578.688 519.931 578.102V575.277C519.837 574.848 519.7 574.434 519.521 574.035C519.349 573.629 519.122 573.27 518.841 572.957C518.568 572.637 518.228 572.383 517.822 572.195C517.423 572.008 516.95 571.914 516.404 571.914C515.81 571.914 515.298 572.039 514.868 572.289C514.447 572.531 514.099 572.867 513.825 573.297C513.552 573.719 513.349 574.211 513.216 574.773C513.091 575.328 513.029 575.922 513.029 576.555ZM526.521 576.801V576.531C526.521 575.617 526.653 574.77 526.919 573.988C527.185 573.199 527.568 572.516 528.068 571.938C528.568 571.352 529.173 570.898 529.884 570.578C530.595 570.25 531.392 570.086 532.275 570.086C533.165 570.086 533.966 570.25 534.677 570.578C535.396 570.898 536.005 571.352 536.505 571.938C537.013 572.516 537.4 573.199 537.665 573.988C537.931 574.77 538.064 575.617 538.064 576.531V576.801C538.064 577.715 537.931 578.562 537.665 579.344C537.4 580.125 537.013 580.809 536.505 581.395C536.005 581.973 535.4 582.426 534.689 582.754C533.985 583.074 533.189 583.234 532.298 583.234C531.407 583.234 530.607 583.074 529.896 582.754C529.185 582.426 528.575 581.973 528.068 581.395C527.568 580.809 527.185 580.125 526.919 579.344C526.653 578.562 526.521 577.715 526.521 576.801ZM528.689 576.531V576.801C528.689 577.434 528.763 578.031 528.911 578.594C529.06 579.148 529.282 579.641 529.579 580.07C529.884 580.5 530.263 580.84 530.716 581.09C531.169 581.332 531.696 581.453 532.298 581.453C532.892 581.453 533.411 581.332 533.857 581.09C534.31 580.84 534.685 580.5 534.982 580.07C535.278 579.641 535.501 579.148 535.65 578.594C535.806 578.031 535.884 577.434 535.884 576.801V576.531C535.884 575.906 535.806 575.316 535.65 574.762C535.501 574.199 535.275 573.703 534.97 573.273C534.673 572.836 534.298 572.492 533.845 572.242C533.4 571.992 532.876 571.867 532.275 571.867C531.681 571.867 531.157 571.992 530.704 572.242C530.259 572.492 529.884 572.836 529.579 573.273C529.282 573.703 529.06 574.199 528.911 574.762C528.763 575.316 528.689 575.906 528.689 576.531ZM553.411 565V583H551.231V565H553.411ZM566.528 580.832V574.305C566.528 573.805 566.426 573.371 566.223 573.004C566.028 572.629 565.731 572.34 565.333 572.137C564.934 571.934 564.442 571.832 563.856 571.832C563.309 571.832 562.829 571.926 562.415 572.113C562.008 572.301 561.688 572.547 561.454 572.852C561.227 573.156 561.114 573.484 561.114 573.836H558.946C558.946 573.383 559.063 572.934 559.298 572.488C559.532 572.043 559.868 571.641 560.305 571.281C560.751 570.914 561.282 570.625 561.899 570.414C562.524 570.195 563.219 570.086 563.985 570.086C564.907 570.086 565.719 570.242 566.423 570.555C567.133 570.867 567.688 571.34 568.087 571.973C568.493 572.598 568.696 573.383 568.696 574.328V580.234C568.696 580.656 568.731 581.105 568.801 581.582C568.88 582.059 568.993 582.469 569.141 582.812V583H566.88C566.77 582.75 566.684 582.418 566.622 582.004C566.559 581.582 566.528 581.191 566.528 580.832ZM566.903 575.312L566.926 576.836H564.735C564.118 576.836 563.567 576.887 563.083 576.988C562.598 577.082 562.192 577.227 561.864 577.422C561.536 577.617 561.286 577.863 561.114 578.16C560.942 578.449 560.856 578.789 560.856 579.18C560.856 579.578 560.946 579.941 561.126 580.27C561.305 580.598 561.575 580.859 561.934 581.055C562.301 581.242 562.751 581.336 563.282 581.336C563.946 581.336 564.532 581.195 565.04 580.914C565.548 580.633 565.95 580.289 566.247 579.883C566.551 579.477 566.715 579.082 566.739 578.699L567.665 579.742C567.61 580.07 567.462 580.434 567.219 580.832C566.977 581.23 566.653 581.613 566.247 581.98C565.848 582.34 565.372 582.641 564.817 582.883C564.27 583.117 563.653 583.234 562.965 583.234C562.106 583.234 561.352 583.066 560.704 582.73C560.063 582.395 559.563 581.945 559.204 581.383C558.852 580.812 558.676 580.176 558.676 579.473C558.676 578.793 558.809 578.195 559.075 577.68C559.34 577.156 559.723 576.723 560.223 576.379C560.723 576.027 561.325 575.762 562.028 575.582C562.731 575.402 563.516 575.312 564.383 575.312H566.903ZM584.547 572.758V587.875H582.367V570.32H584.36L584.547 572.758ZM593.09 576.555V576.801C593.09 577.723 592.981 578.578 592.762 579.367C592.543 580.148 592.223 580.828 591.801 581.406C591.387 581.984 590.875 582.434 590.266 582.754C589.657 583.074 588.957 583.234 588.168 583.234C587.364 583.234 586.653 583.102 586.035 582.836C585.418 582.57 584.895 582.184 584.465 581.676C584.035 581.168 583.692 580.559 583.434 579.848C583.184 579.137 583.012 578.336 582.918 577.445V576.133C583.012 575.195 583.188 574.355 583.446 573.613C583.703 572.871 584.043 572.238 584.465 571.715C584.895 571.184 585.414 570.781 586.024 570.508C586.633 570.227 587.336 570.086 588.133 570.086C588.93 570.086 589.637 570.242 590.254 570.555C590.871 570.859 591.391 571.297 591.813 571.867C592.235 572.438 592.551 573.121 592.762 573.918C592.981 574.707 593.09 575.586 593.09 576.555ZM590.91 576.801V576.555C590.91 575.922 590.844 575.328 590.711 574.773C590.578 574.211 590.371 573.719 590.09 573.297C589.817 572.867 589.465 572.531 589.035 572.289C588.606 572.039 588.094 571.914 587.5 571.914C586.953 571.914 586.477 572.008 586.071 572.195C585.672 572.383 585.332 572.637 585.051 572.957C584.77 573.27 584.539 573.629 584.36 574.035C584.188 574.434 584.059 574.848 583.973 575.277V578.312C584.129 578.859 584.348 579.375 584.629 579.859C584.91 580.336 585.285 580.723 585.754 581.02C586.223 581.309 586.813 581.453 587.524 581.453C588.11 581.453 588.614 581.332 589.035 581.09C589.465 580.84 589.817 580.5 590.09 580.07C590.371 579.641 590.578 579.148 590.711 578.594C590.844 578.031 590.91 577.434 590.91 576.801ZM605.492 580.832V574.305C605.492 573.805 605.391 573.371 605.188 573.004C604.992 572.629 604.695 572.34 604.297 572.137C603.899 571.934 603.406 571.832 602.82 571.832C602.274 571.832 601.793 571.926 601.379 572.113C600.973 572.301 600.652 572.547 600.418 572.852C600.192 573.156 600.078 573.484 600.078 573.836H597.91C597.91 573.383 598.027 572.934 598.262 572.488C598.496 572.043 598.832 571.641 599.27 571.281C599.715 570.914 600.246 570.625 600.863 570.414C601.488 570.195 602.184 570.086 602.949 570.086C603.871 570.086 604.684 570.242 605.387 570.555C606.098 570.867 606.652 571.34 607.051 571.973C607.457 572.598 607.66 573.383 607.66 574.328V580.234C607.66 580.656 607.695 581.105 607.766 581.582C607.844 582.059 607.957 582.469 608.106 582.812V583H605.844C605.735 582.75 605.649 582.418 605.586 582.004C605.524 581.582 605.492 581.191 605.492 580.832ZM605.867 575.312L605.891 576.836H603.699C603.082 576.836 602.531 576.887 602.047 576.988C601.563 577.082 601.156 577.227 600.828 577.422C600.5 577.617 600.25 577.863 600.078 578.16C599.906 578.449 599.82 578.789 599.82 579.18C599.82 579.578 599.91 579.941 600.09 580.27C600.27 580.598 600.539 580.859 600.899 581.055C601.266 581.242 601.715 581.336 602.246 581.336C602.91 581.336 603.496 581.195 604.004 580.914C604.512 580.633 604.914 580.289 605.211 579.883C605.516 579.477 605.68 579.082 605.703 578.699L606.629 579.742C606.574 580.07 606.426 580.434 606.184 580.832C605.942 581.23 605.617 581.613 605.211 581.98C604.813 582.34 604.336 582.641 603.781 582.883C603.235 583.117 602.617 583.234 601.93 583.234C601.07 583.234 600.317 583.066 599.668 582.73C599.027 582.395 598.527 581.945 598.168 581.383C597.817 580.812 597.641 580.176 597.641 579.473C597.641 578.793 597.774 578.195 598.039 577.68C598.305 577.156 598.688 576.723 599.188 576.379C599.688 576.027 600.289 575.762 600.992 575.582C601.695 575.402 602.481 575.312 603.348 575.312H605.867ZM601.988 568.445L604.262 565H606.875L603.735 568.445H601.988ZM621.445 570.32H623.414V582.73C623.414 583.848 623.188 584.801 622.734 585.59C622.281 586.379 621.648 586.977 620.836 587.383C620.031 587.797 619.102 588.004 618.047 588.004C617.609 588.004 617.094 587.934 616.5 587.793C615.914 587.66 615.336 587.43 614.766 587.102C614.203 586.781 613.73 586.348 613.348 585.801L614.484 584.512C615.016 585.152 615.57 585.598 616.148 585.848C616.734 586.098 617.312 586.223 617.883 586.223C618.57 586.223 619.164 586.094 619.664 585.836C620.164 585.578 620.551 585.195 620.824 584.688C621.105 584.188 621.246 583.57 621.246 582.836V573.109L621.445 570.32ZM612.715 576.801V576.555C612.715 575.586 612.828 574.707 613.055 573.918C613.289 573.121 613.621 572.438 614.051 571.867C614.488 571.297 615.016 570.859 615.633 570.555C616.25 570.242 616.945 570.086 617.719 570.086C618.516 570.086 619.211 570.227 619.805 570.508C620.406 570.781 620.914 571.184 621.328 571.715C621.75 572.238 622.082 572.871 622.324 573.613C622.566 574.355 622.734 575.195 622.828 576.133V577.211C622.742 578.141 622.574 578.977 622.324 579.719C622.082 580.461 621.75 581.094 621.328 581.617C620.914 582.141 620.406 582.543 619.805 582.824C619.203 583.098 618.5 583.234 617.695 583.234C616.938 583.234 616.25 583.074 615.633 582.754C615.023 582.434 614.5 581.984 614.062 581.406C613.625 580.828 613.289 580.148 613.055 579.367C612.828 578.578 612.715 577.723 612.715 576.801ZM614.883 576.555V576.801C614.883 577.434 614.945 578.027 615.07 578.582C615.203 579.137 615.402 579.625 615.668 580.047C615.941 580.469 616.289 580.801 616.711 581.043C617.133 581.277 617.637 581.395 618.223 581.395C618.941 581.395 619.535 581.242 620.004 580.938C620.473 580.633 620.844 580.23 621.117 579.73C621.398 579.23 621.617 578.688 621.773 578.102V575.277C621.688 574.848 621.555 574.434 621.375 574.035C621.203 573.629 620.977 573.27 620.695 572.957C620.422 572.637 620.082 572.383 619.676 572.195C619.27 572.008 618.793 571.914 618.246 571.914C617.652 571.914 617.141 572.039 616.711 572.289C616.289 572.531 615.941 572.867 615.668 573.297C615.402 573.719 615.203 574.211 615.07 574.773C614.945 575.328 614.883 575.922 614.883 576.555ZM631.223 570.32V583H629.043V570.32H631.223ZM628.879 566.957C628.879 566.605 628.984 566.309 629.195 566.066C629.414 565.824 629.734 565.703 630.156 565.703C630.57 565.703 630.887 565.824 631.105 566.066C631.332 566.309 631.445 566.605 631.445 566.957C631.445 567.293 631.332 567.582 631.105 567.824C630.887 568.059 630.57 568.176 630.156 568.176C629.734 568.176 629.414 568.059 629.195 567.824C628.984 567.582 628.879 567.293 628.879 566.957ZM639.031 573.027V583H636.863V570.32H638.914L639.031 573.027ZM638.515 576.18L637.613 576.145C637.621 575.277 637.75 574.477 638 573.742C638.25 573 638.601 572.355 639.054 571.809C639.508 571.262 640.047 570.84 640.672 570.543C641.304 570.238 642.004 570.086 642.769 570.086C643.394 570.086 643.957 570.172 644.457 570.344C644.957 570.508 645.383 570.773 645.734 571.141C646.093 571.508 646.367 571.984 646.554 572.57C646.742 573.148 646.836 573.855 646.836 574.691V583H644.656V574.668C644.656 574.004 644.558 573.473 644.363 573.074C644.168 572.668 643.883 572.375 643.508 572.195C643.133 572.008 642.672 571.914 642.125 571.914C641.586 571.914 641.093 572.027 640.648 572.254C640.211 572.48 639.832 572.793 639.511 573.191C639.199 573.59 638.953 574.047 638.773 574.562C638.601 575.07 638.515 575.609 638.515 576.18ZM659.765 580.832V574.305C659.765 573.805 659.664 573.371 659.46 573.004C659.265 572.629 658.968 572.34 658.57 572.137C658.171 571.934 657.679 571.832 657.093 571.832C656.546 571.832 656.066 571.926 655.652 572.113C655.246 572.301 654.925 572.547 654.691 572.852C654.464 573.156 654.351 573.484 654.351 573.836H652.183C652.183 573.383 652.3 572.934 652.535 572.488C652.769 572.043 653.105 571.641 653.543 571.281C653.988 570.914 654.519 570.625 655.136 570.414C655.761 570.195 656.457 570.086 657.222 570.086C658.144 570.086 658.957 570.242 659.66 570.555C660.371 570.867 660.925 571.34 661.324 571.973C661.73 572.598 661.933 573.383 661.933 574.328V580.234C661.933 580.656 661.968 581.105 662.039 581.582C662.117 582.059 662.23 582.469 662.378 582.812V583H660.117C660.007 582.75 659.921 582.418 659.859 582.004C659.796 581.582 659.765 581.191 659.765 580.832ZM660.14 575.312L660.164 576.836H657.972C657.355 576.836 656.804 576.887 656.32 576.988C655.835 577.082 655.429 577.227 655.101 577.422C654.773 577.617 654.523 577.863 654.351 578.16C654.179 578.449 654.093 578.789 654.093 579.18C654.093 579.578 654.183 579.941 654.363 580.27C654.543 580.598 654.812 580.859 655.171 581.055C655.539 581.242 655.988 581.336 656.519 581.336C657.183 581.336 657.769 581.195 658.277 580.914C658.785 580.633 659.187 580.289 659.484 579.883C659.789 579.477 659.953 579.082 659.976 578.699L660.902 579.742C660.847 580.07 660.699 580.434 660.457 580.832C660.214 581.23 659.89 581.613 659.484 581.98C659.085 582.34 658.609 582.641 658.054 582.883C657.507 583.117 656.89 583.234 656.203 583.234C655.343 583.234 654.589 583.066 653.941 582.73C653.3 582.395 652.8 581.945 652.441 581.383C652.089 580.812 651.914 580.176 651.914 579.473C651.914 578.793 652.046 578.195 652.312 577.68C652.578 577.156 652.96 576.723 653.46 576.379C653.96 576.027 654.562 575.762 655.265 575.582C655.968 575.402 656.753 575.312 657.621 575.312H660.14Z" fill="#153989"/>
</svg>
